<?xml version="1.0"?>
<!--
*************Map created by Simplemaps.com********************		
*************Attribution is highly appreciated!***************
*************http://simplemaps.com****************************

The MIT License (MIT)

Copyright (c) 2020 Pareto Softare, LLC DBA Simplemaps.com

Permission is hereby granted, free of charge, to any person obtaining a copy
of this software and associated documentation files (the "Software"), to deal
in the Software without restriction, including without limitation the rights
to use, copy, modify, merge, publish, distribute, sublicense, and/or sell
copies of the Software, and to permit persons to whom the Software is
furnished to do so, subject to the following conditions:

The above copyright notice and this permission notice shall be included in
all copies or substantial portions of the Software.

THE SOFTWARE IS PROVIDED "AS IS", WITHOUT WARRANTY OF ANY KIND, EXPRESS OR
IMPLIED, INCLUDING BUT NOT LIMITED TO THE WARRANTIES OF MERCHANTABILITY,
FITNESS FOR A PARTICULAR PURPOSE AND NONINFRINGEMENT. IN NO EVENT SHALL THE
AUTHORS OR COPYRIGHT HOLDERS BE LIABLE FOR ANY CLAIM, DAMAGES OR OTHER
LIABILITY, WHETHER IN AN ACTION OF CONTRACT, TORT OR OTHERWISE, ARISING FROM,
OUT OF OR IN CONNECTION WITH THE SOFTWARE OR THE USE OR OTHER DEALINGS IN
THE SOFTWARE.

-->
<svg fill="none" height="857" viewBox="0 0 2000 857" width="2000" xmlns="http://www.w3.org/2000/svg">
    <defs>
        <style><![CDATA[
            /* Center all labels on their x/y anchor point */
            text {
                text-anchor: middle;
                dominant-baseline: middle;
                fill: #ffffff;
                stroke: #000000;
                stroke-width: 1;
                font-family: Segoe UI, Arial, sans-serif;
                font-size: 8px;
            }
        ]]></style>
        <clipPath id="bounds">
            <rect x="0" y="0" width="2000" height="857"/>
        </clipPath>
    </defs>

    <!-- Europe — 1941 English names (pre‑invasion where applicable). -->
    <g id="labels-europe" pointer-events="none" clip-path="url(#bounds)">
        <!-- British Isles -->
        <text x="549" y="157">
            <tspan x="549" dy="-0.6em">United</tspan>
            <tspan x="549" dy="1.2em">Kingdom</tspan>
        </text>
        <text x="530" y="160">Ireland</text>

        <!-- Western Europe -->
        <text x="587" y="205">France</text>
        <text x="530" y="260">Spain</text>
        <text x="505" y="270">Portugal</text>
        <text x="585" y="187">Belgium</text>
        <text x="598" y="178">Netherlands</text>
        <text x="605" y="200">Luxembourg</text>
        <text x="610" y="215">Switzerland</text>

        <!-- Central Europe -->
        <text x="625" y="190">Germany</text>
        <text x="645" y="205">Austria</text>
        <text x="636" y="190">Czechoslovakia</text>
        <text x="655" y="210">Hungary</text>

        <!-- Northern Europe -->
        <text x="614" y="145">Denmark</text>
        <text x="639" y="58">Norway</text>
        <text x="655" y="100">Sweden</text>
        <text x="690" y="100">Finland</text>
        <text x="690" y="140">Estonia</text>
        <text x="680" y="150">Latvia</text>
        <text x="670" y="160">Lithuania</text>

        <!-- Eastern Europe & Balkans (pre‑invasion labels) -->
        <text x="665" y="180">Poland</text>
        <text x="665" y="235">Yugoslavia</text>
        <text x="680" y="220">Romania</text>
        <text x="700" y="240">Bulgaria</text>
        <text x="670" y="235">Albania</text>
        <text x="690" y="252">Greece</text>

        <!-- Near East & Eurasia edge -->
        <text x="748" y="251">Turkey</text>
        <text x="972" y="116">Soviet Union</text>
    </g>

    <!-- Africa & Middle East — 1941 English names; pre‑invasion labels; centered. -->
    <g id="labels-africa-me" pointer-events="none" clip-path="url(#bounds)">
        <!-- North Africa -->
        <text x="555" y="300">Morocco</text>
        <text x="540" y="320">Western Sahara</text>
        <text x="605" y="360">Algeria</text>
        <text x="640" y="320">Tunisia</text>
        <text x="700" y="380">Libya</text>
        <text x="760" y="330">Egypt</text>

        <!-- Middle East & Arabia (WW2 names) -->
        <text x="770" y="290">Syria</text>
        <text x="765" y="285">Lebanon</text>
        <text x="775" y="300">Palestine</text>
        <text x="785" y="305">Transjordan</text>
        <text x="815" y="285">Iraq</text>
        <text x="850" y="310">Persia</text>
        <text x="830" y="315">Kuwait</text>
        <text x="842" y="334">Bahrain</text>
        <text x="848" y="340">Qatar</text>
        <text x="878" y="344">Trucial States</text>
        <text x="870" y="380">Oman</text>
        <text x="860" y="400">Yemen</text>
        <text x="820" y="350">Saudi Arabia</text>

        <!-- Northeast Africa / Horn -->
        <text x="780" y="410">Sudan</text>
        <text x="805" y="425">Eritrea</text>
        <text x="790" y="440">Ethiopia</text>
        <text x="810" y="440">Djibouti</text>
        <text x="825" y="455">Somalia</text>

        <!-- West Africa -->
        <text x="495" y="420">Senegal</text>
        <text x="480" y="420">The Gambia</text>
        <text x="485" y="430">Guinea‑Bissau</text>
        <text x="500" y="435">Guinea</text>
        <text x="510" y="448">Sierra Leone</text>
        <text x="520" y="455">Liberia</text>
        <text x="540" y="450">Côte d'Ivoire</text>
        <text x="567" y="440">Ghana</text>
        <text x="578" y="432">Togo</text>
        <text x="586" y="440">Benin</text>
        <text x="568" y="418">Burkina Faso</text>
        <text x="590" y="405">Mali</text>
        <text x="560" y="400">Mauritania</text>

        <!-- Central Africa -->
        <text x="660" y="420">Niger</text>
        <text x="700" y="465">Central African Republic</text>
        <text x="655" y="465">Cameroon</text>
        <text x="630" y="490">Equatorial Guinea</text>
        <text x="650" y="500">Gabon</text>
        <text x="670" y="500">Republic of the Congo</text>
        <text x="720" y="500">
            <tspan x="720" dy="-0.6em">Belgian</tspan>
            <tspan x="720" dy="1.2em">Congo</tspan>
        </text>

        <!-- Southern Africa -->
        <text x="670" y="560">Angola</text>
        <text x="735" y="565">Zambia</text>
        <text x="765" y="595">Malawi</text>
        <text x="750" y="610">Mozambique</text>
        <text x="700" y="620">Namibia</text>
        <text x="710" y="640">Botswana</text>
        <text x="735" y="635">Zimbabwe</text>
        <text x="720" y="690">South Africa</text>
        <text x="719" y="700">Lesotho</text>
        <text x="742" y="668">Swaziland</text>
        <text x="845" y="610">Madagascar</text>
        <text x="430" y="400">Cape Verde</text>
    </g>

    <!-- Asia–Pacific — 1941 English names; WW2 era labels; centered. -->
    <g id="labels-asia-pacific" pointer-events="none" clip-path="url(#bounds)">
        <!-- South & Central Asia -->
        <text x="965" y="275">Afghanistan</text>
        <text x="1030" y="340">British India</text>
        <text x="1048" y="325">Nepal</text>
        <text x="1070" y="325">Bhutan</text>
        <text x="1028" y="462">Ceylon</text>

        <!-- East Asia -->
        <text x="1185" y="300">China</text>
        <text x="1078" y="185">Mongolia</text>
        <text x="1238" y="265">Korea</text>
        <text x="1240" y="356">Formosa</text>
        <text x="1295" y="275">Japan</text>

        <!-- Southeast Asia (WW2 names) -->
        <text x="1128" y="364">Burma</text>
        <text x="1169" y="390">French Indochina</text>
        <text x="1158" y="410">Siam</text>
        <text x="1185" y="475">British Malaya</text>
        <text x="1268" y="450">Philippines</text>
        <text x="1240" y="545">
            <tspan x="1240" dy="-0.6em">Netherlands</tspan>
            <tspan x="1240" dy="1.2em">East Indies</tspan>
        </text>

        <!-- China coast concessions (small) -->
        <text x="1178" y="322">Hong Kong</text>
        <text x="1172" y="328">Macau</text>

        <!-- Oceania -->
        <text x="1285" y="690">Australia</text>
        <text x="1460" y="770">New Zealand</text>
        <text x="1325" y="520">New Guinea</text>
        <text x="1480" y="570">Solomon Islands</text>
        <text x="1495" y="640">New Caledonia</text>
        <text x="1562" y="620">Fiji</text>

        <!-- Central Pacific grouped labels -->
        <text x="-180" y="610">Hawaiian Islands</text>
        <text x="1390" y="545">Papua</text>
    </g>

    <!-- Americas — 1941 English names; island chains grouped; labels centered on countries. -->
    <g id="labels-americas" pointer-events="none" clip-path="url(#bounds)" transform="translate(-420, 0)">
        <!-- North America -->
        <text x="600" y="180">Canada</text>
        <text x="520" y="240">
            <tspan x="520" dy="-0.6em">United</tspan>
            <tspan x="520" dy="1.2em">States</tspan>
        </text>
        <text x="520" y="330">Mexico</text>
        <text x="920" y="120">Greenland</text>
        <text x="637" y="294">Bermuda</text>

        <!-- Central America -->
        <text x="488" y="390">Guatemala</text>
        <text x="488" y="404">Belize</text>
        <text x="514" y="427">El Salvador</text>
        <text x="519" y="415">Honduras</text>
        <text x="520" y="405">Nicaragua</text>
        <text x="516" y="445">Costa Rica</text>
        <text x="550" y="450">Panama</text>

        <!-- Caribbean (group island chains, place labels near clusters) -->
        <text x="125" y="360">Cuba</text>
        <text x="136" y="387">Jamaica</text>
        <text x="166" y="374">Haiti</text>
        <text x="172" y="386">Dominican Republic</text>
        <text x="197" y="385">Puerto Rico</text>
        <text x="155" y="350">Bahamas</text>
        <text x="225" y="430">
            <tspan x="225" dy="-0.6em">Trinidad &amp;</tspan>
            <tspan x="225" dy="1.2em">Tobago</tspan>
        </text>

        <!-- The Guianas -->
        <text x="257" y="487">French Guiana</text>
        <text x="242" y="475">Guyana</text>
        <text x="261" y="465">Suriname</text>

        <!-- South America north/west -->
        <text x="235" y="465">Venezuela</text>
        <text x="168" y="465">Colombia</text>
        <text x="140" y="515">Ecuador</text>
        <text x="170" y="560">Peru</text>
        <text x="240" y="540">Bolivia</text>

        <!-- Southern Cone -->
        <text x="240" y="720">Argentina</text>
        <text x="205" y="740">Chile</text>
        <text x="280" y="720">Uruguay</text>
        <text x="250" y="650">Paraguay</text>

        <!-- Brazil (centered roughly on interior) -->
        <text x="250" y="600">Brazil</text>

        <!-- South Atlantic islands -->
        <text x="275" y="835">Falkland Islands</text>
    </g>

</svg>
