<?xml version="1.0" encoding="utf-8"?>
<svg xmlns="http://www.w3.org/2000/svg"
     xmlns:xlink="http://www.w3.org/1999/xlink"
     fill="#ececec"
     width="2000"
     height="857"
     stroke="black"
     stroke-linecap="round"
     stroke-linejoin="round"
     stroke-width=".2"
     viewBox="0 0 2000 857">
  <defs>
    <clipPath id="bounds">
      <rect x="0" y="0" width="2000" height="857"/>
    </clipPath>
  </defs>
  <g id="symbol-soviet-union" transform="translate(715, 121) scale(0.2, 0.2)">
    <defs>
      <clipPath id="sovietClip">
        <circle r="80"
                cx="150"
                cy="135"/>
      </clipPath>
    </defs>
    <g id="soviet-background" clip-path="url(#sovietClip)">
      <rect id="rect3"
            fill="#BC0000"
            width="300"
            height="300"
            style="fill:#be000d;fill-opacity:1"/>
      <g id="hammer-sickle"
         transform="translate(25, 65)">
        <path id="path15"
              fill="#FCD116"
              d="M109.942,16.107h12.459l3.849-11.951l3.848,11.951h12.459l-10.078,7.385l3.849,11.95l-10.078-7.385 l-10.079,7.385l3.849-11.95L109.942,16.107z"
              style="fill:#fcd20f;fill-opacity:1"/>
        <path id="path17"
              fill="#BC0000"
              d="M115.921,18.065h7.891l2.438-7.569l2.438,7.569h7.89l-6.383,4.677l2.438,7.569l-6.382-4.677l-6.384,4.677 l2.438-7.569L115.921,18.065z"
              style="fill:#be000d;fill-opacity:1"/>
        <g id="g4179"
           transform="matrix(1.0922024,0,0,1.0922024,-246.15892,-61.860839)"
           style="fill:#fcd20f;fill-opacity:1">
          <path id="path4173"
                d="m 312.35543,114.15975 -15.2807,17.30315 6.51677,7.86506 21.34804,-25.56146 z"
                style="fill:#fcd20f;fill-opacity:1;fill-rule:evenodd;stroke:none;stroke-width:1px;stroke-linecap:butt;stroke-linejoin:miter;stroke-opacity:0"/>
          <path id="path4175"
                d="m 304.6589,140.00211 21.96601,-25.95471 3.76399,6.01115 -5.67407,6.74148 48.37014,40.67363 c 3.21944,2.12361 -0.85186,7.67277 -4.19317,8.04611 -0.67577,0.0755 -1.5296,-0.15668 -2.66067,-0.96755 l -47.35893,-41.23542 -6.9662,8.25832 z"
                style="fill:#fcd20f;fill-opacity:1;fill-rule:evenodd;stroke:none;stroke-width:1px;stroke-linecap:butt;stroke-linejoin:miter;stroke-opacity:0"/>
          <path id="path4177"
                d="m 326.63302,150.03811 c -1.48285,1.10879 -2.08056,3.29306 -5.93161,4.68759 -2.83647,1.02714 -5.1187,4.87829 -6.18929,7.8878 -1.55264,4.36454 -3.85084,5.74951 -5.93161,8.04328 -1.53479,6.08008 4.12569,3.93419 5.0053,3.57521 2.12971,-2.45638 2.85354,-4.80503 6.77762,-6.99452 2.79346,-1.55864 5.63728,-3.70624 6.62599,-6.94472 0.3062,-1.00293 1.38429,-1.67179 2.40677,-2.42728 18.16812,17.76716 34.14514,13.73871 44.09622,-1.34169 7.21068,-10.68257 5.73924,-27.61181 0.70082,-37.97036 -8.48595,-15.96166 -27.55045,-21.823516 -38.76216,-22.360731 -3.52623,-0.168961 -4.67626,0.307239 -6.72555,0.496929 1.94695,0.476771 12.37054,2.364168 23.1446,9.500022 9.37605,6.20992 17.61518,16.39461 16.92106,33.0834 -1.14692,19.46242 -13.85099,27.47589 -33.21816,15.38325 -0.58958,-0.36813 -2.29762,-1.86718 -2.89942,-2.27282 0.74253,-3.09465 0.19097,-4.47193 -3.97246,-4.29025 z"
                style="fill:#fcd20f;fill-opacity:1;fill-rule:evenodd;stroke:none;stroke-width:1px;stroke-linecap:butt;stroke-linejoin:miter;stroke-opacity:0"/>
        </g>
      </g>
    </g>
  </g>
  <g id="symbol-germany" transform="translate(578, 152) scale(0.68, 0.68)">
    <defs>
      <clipPath id="germanyClip">
        <circle r="25"
                cx="100"
                cy="113"/>
      </clipPath>
    </defs>
    <g id="germany-background" clip-path="url(#germanyClip)">
      <rect id="rect1"
            fill="#BC0000"
            width="200"
            height="200"
            style="fill:#de0000; fill-opacity:1"/>
      <circle id="rect2"
              r="18"
              cx="100"
              cy="113"
              fill="#ffffff"
              style="fill:#ffffff; fill-opacity:1"/>
      <path id="swastika"
            d="M10,1h-5v8h-5 M1,0v5h8v5"
            transform="translate(100, 100) rotate(45) scale(2, 2)"
            stroke="#000"
            stroke-width="2"/>
    </g>
  </g>
  <g id="symbol-united-kingdom" transform="translate(515, 129) scale(0.065, 0.065)">
    <circle cx="301" cy="301" r="300" fill="#00224b"/>
    <circle cx="301" cy="301" r="180" fill="#ffffff"/>
    <circle cx="301" cy="301" r="60" fill="#8b2f08"/>
  </g>
  <g id="symbol-japan" transform="translate(1291.6, 227) scale(0.195, 0.195)">
    <defs>
      <defs>
        <clipPath id="japanClip">
          <circle r="100"
                  cx="220"
                  cy="310"/>
        </clipPath>
      </defs>
    </defs>
    <g clip-path="url(#japanClip)">
      <defs>
        <clipPath clipPathUnits="userSpaceOnUse" id="j">
          <path fill="green" fill-rule="evenodd" stroke-width="1.207" d="M-233.804 -375.571H666.196V224.42899999999997H-233.804z"/>
        </clipPath>
        <clipPath clipPathUnits="userSpaceOnUse" id="i">
          <path fill="green" fill-rule="evenodd" stroke-width="1.207" d="M65.768 -376.327H965.768V223.673H65.768z"/>
        </clipPath>
        <clipPath clipPathUnits="userSpaceOnUse" id="h">
          <path fill="green" fill-rule="evenodd" stroke-width="1.207" d="M65.768 -376.327H965.768V223.673H65.768z"/>
        </clipPath>
        <clipPath clipPathUnits="userSpaceOnUse" id="g">
          <path fill="green" fill-rule="evenodd" stroke-width="1.207" d="M65.768 -376.327H965.768V223.673H65.768z"/>
        </clipPath>
        <clipPath clipPathUnits="userSpaceOnUse" id="f">
          <path fill="green" fill-rule="evenodd" stroke-width="1.207" d="M65.768 -376.327H965.768V223.673H65.768z"/>
        </clipPath>
        <clipPath clipPathUnits="userSpaceOnUse" id="e">
          <path fill="green" fill-rule="evenodd" stroke-width="1.207" d="M65.768 -376.327H965.768V223.673H65.768z"/>
        </clipPath>
        <clipPath clipPathUnits="userSpaceOnUse" id="d">
          <path fill="green" fill-rule="evenodd" stroke-width="1.207" d="M65.768 -376.327H965.768V223.673H65.768z"/>
        </clipPath>
        <clipPath clipPathUnits="userSpaceOnUse" id="c">
          <path fill="green" fill-rule="evenodd" stroke-width="1.207" d="M65.768 -376.327H965.768V223.673H65.768z"/>
        </clipPath>
        <clipPath clipPathUnits="userSpaceOnUse" id="b">
          <path fill="green" fill-rule="evenodd" stroke-width="1.207" d="M65.768 -376.327H965.768V223.673H65.768z"/>
        </clipPath>
        <clipPath clipPathUnits="userSpaceOnUse" id="a">
          <path fill="green" fill-rule="evenodd" stroke-width="1.207" d="M65.768 -376.327H965.768V223.673H65.768z"/>
        </clipPath>
      </defs>
      <g transform="translate(-65.767868,376.32739) scale(0.5)">
        <path clip-path="url(#a)" fill="#fff" fill-rule="evenodd" d="M65.768 -376.327H965.768V223.673H65.768z"/>
        <path d="m 456.95757,520.78359 117.62057,2e-5 -117.62058,-1194.2217 117.62057,-3e-4 z" clip-path="url(#b)" fill="#b0313f"/>
        <path d="m 232.92975,452.82538 108.66724,45.01145 348.34161,-1148.32844 108.66735,45.01117 z" clip-path="url(#c)" fill="#b0313f"/>
        <path d="m 51.961465,304.30862 83.170315,83.17026 761.27194,-927.61254 83.17051,83.17009 z" clip-path="url(#d)" fill="#b0313f"/>
        <path d="m -58.396507,97.84345 45.01148,108.6672 1058.305527,-565.67608 45.0117,108.66712 z" clip-path="url(#e)" fill="#b0313f"/>
        <path d="m -81.343172,-135.13767 4e-5,117.620547 1194.221732,-117.620547 3e-4,117.620557 z" clip-path="url(#f)" fill="#b0313f"/>
        <path d="m -13.385019,-359.16552 -45.0114,108.66723 L 1089.9321,97.8434 1044.921,206.51074 Z" clip-path="url(#g)" fill="#b0313f"/>
        <path d="m 135.1318,-540.13385 -83.170261,83.17031 927.612651,761.27207 -83.17002,83.17053 z" clip-path="url(#h)" fill="#b0313f"/>
        <path d="M 341.597,-650.49185 232.9298,-605.48039 798.60593,452.82529 689.93887,497.83705 Z" clip-path="url(#i)" fill="#b0313f"/>
        <path transform="translate(408, -32) scale(0.5, 0.5)"
              d="m 366.19644,-75.571401 a 150,150 0 0 1 -150,150 150,150 0 0 1 -150.00002,-150 150,150 0 0 1 150.00002,-149.999999 150,150 0 0 1 150,149.999999 z"
              clip-path="url(#j)" fill="#b0313f"/>
      </g>
    </g>
  </g>
  <g id="symbol-united-states" transform="translate(28.8, 240.5) scale(0.0195, 0.0195)">
    <defs>
      <clipPath id="unitesStatesClip">
        <circle r="1000"
                cx="2750"
                cy="1750"/>
      </clipPath>
    </defs>
    <g clip-path="url(#unitesStatesClip)">
      <path d="M0,0h7410v3900H0" fill="#b31942"/>
      <path d="M0,450H7410m0,600H0m0,600H7410m0,600H0m0,600H7410m0,600H0" stroke="#FFF" stroke-width="300"/>
      <path d="M0,0h2964v2100H0" fill="#0a3161"/>
      <g fill="#FFF">
        <g id="s18">
          <g id="s9">
            <g id="s5">
              <g id="s4">
                <path id="s" d="M247,90 317.534230,307.082039 132.873218,172.917961H361.126782L176.465770,307.082039z"/>
                <use xlink:href="#s" y="420"/>
                <use xlink:href="#s" y="840"/>
                <use xlink:href="#s" y="1260"/>
              </g>
              <use xlink:href="#s" y="1680"/>
            </g>
            <use xlink:href="#s4" x="247" y="210"/>
          </g>
          <use xlink:href="#s9" x="494"/>
        </g>
        <use xlink:href="#s18" x="988"/>
        <use xlink:href="#s9" x="1976"/>
        <use xlink:href="#s5" x="2470"/>
      </g>
    </g>
  </g>
</svg>
